<?xml version="1.0" standalone="no"?>
<!DOCTYPE svg PUBLIC "-//W3C//DTD SVG 20010904//EN"
 "http://www.w3.org/TR/2001/REC-SVG-20010904/DTD/svg10.dtd">
<svg version="1.0" xmlns="http://www.w3.org/2000/svg"
 width="200.000000pt" height="200.000000pt" viewBox="0 0 200.000000 200.000000"
 preserveAspectRatio="xMidYMid meet">
<metadata>
Created by potrace 1.14, written by Peter Selinger 2001-2017
</metadata>
<g transform="translate(0.000000,200.000000) scale(0.100000,-0.100000)"
fill="#000000" stroke="none">
<path d="M150 1990 c0 -6 -17 -18 -37 -28 -43 -19 -70 -47 -79 -79 -3 -13 -12
-23 -20 -23 -12 0 -14 -142 -14 -929 l0 -929 32 3 c23 2 33 8 32 19 -2 22 22
20 46 -4 20 -20 33 -20 845 -20 642 0 830 3 846 12 17 10 23 10 26 1 6 -16 55
-17 71 -1 9 9 18 9 37 0 14 -7 35 -12 45 -12 20 0 20 13 17 882 l-2 883 -34
69 c-38 74 -93 136 -123 136 -10 0 -18 7 -18 15 0 13 -99 15 -835 15 -559 0
-835 -3 -835 -10z m1365 -52 l250 -3 50 -31 c91 -56 87 -8 88 -914 l0 -785
-24 -37 c-13 -20 -35 -42 -49 -48 -14 -7 -33 -16 -42 -21 -10 -5 -38 -9 -63
-9 -30 0 -44 -4 -40 -11 5 -7 -217 -9 -732 -7 -727 3 -739 3 -783 24 -25 12
-61 41 -80 65 l-35 44 -2 788 c-2 577 0 793 9 810 6 12 14 29 18 37 4 8 28 32
54 55 l48 40 317 5 c174 3 417 4 541 3 124 -2 338 -4 475 -5z m-1472 -1891
c-9 -15 -21 4 -15 25 5 21 6 21 12 2 4 -10 5 -22 3 -27z"/>
<path d="M1728 1913 c7 -3 16 -2 19 1 4 3 -2 6 -13 5 -11 0 -14 -3 -6 -6z"/>
<path d="M965 1852 l-759 -2 -38 -37 -39 -38 1 -764 c1 -677 3 -767 17 -788
36 -55 12 -53 815 -53 409 0 755 0 770 0 14 0 40 12 57 26 l31 26 0 780 0 781
-25 32 c-13 18 -34 34 -47 36 -13 2 -365 3 -783 1z m83 -245 c6 -7 14 -37 18
-67 8 -67 19 -90 42 -90 10 0 41 -12 69 -26 48 -23 54 -24 80 -11 15 9 39 27
52 41 36 39 69 34 119 -17 l42 -43 -27 -37 c-14 -20 -30 -37 -34 -37 -13 0
-31 -69 -24 -92 4 -13 18 -47 31 -75 26 -57 33 -61 124 -65 l55 -3 0 -75 0
-74 -75 -13 c-75 -12 -110 -34 -110 -70 0 -7 -9 -32 -20 -54 -24 -45 -19 -59
36 -122 19 -20 34 -43 34 -51 0 -12 -28 -54 -56 -83 -20 -20 -76 -8 -101 21
-13 15 -36 32 -53 37 -25 9 -39 6 -97 -23 -78 -38 -83 -42 -83 -83 0 -16 -5
-46 -10 -66 -12 -41 -27 -47 -102 -41 -53 4 -57 10 -67 101 -4 33 -12 57 -21
61 -84 43 -125 60 -140 60 -10 0 -40 -18 -65 -40 -25 -22 -55 -40 -67 -40 -23
0 -98 70 -98 93 0 8 21 40 47 72 l47 56 -27 53 c-15 29 -27 60 -27 68 0 26
-25 39 -97 50 -37 6 -71 16 -76 22 -9 14 -6 94 4 124 8 19 15 22 69 22 47 0
64 4 80 20 11 11 20 25 20 30 0 6 11 33 25 62 14 28 25 56 25 61 0 5 -18 29
-40 55 -44 49 -61 93 -41 100 7 2 24 17 39 33 34 39 60 37 120 -11 27 -22 55
-40 61 -40 6 0 34 11 63 25 28 14 57 25 65 25 18 0 30 28 43 103 l12 67 63 0
c38 0 67 -5 73 -13z"/>
<path d="M878 1196 c-58 -35 -79 -57 -100 -106 -36 -83 -10 -181 67 -248 125
-110 325 -31 349 138 12 87 -37 180 -114 220 -56 29 -153 27 -202 -4z"/>
</g>
</svg>
